<?xml version="1.0" encoding="utf-8"?>
<!-- Generator: Adobe Illustrator 16.0.0, SVG Export Plug-In . SVG Version: 6.00 Build 0)  -->
<!DOCTYPE svg PUBLIC "-//W3C//DTD SVG 1.1//EN" "http://www.w3.org/Graphics/SVG/1.1/DTD/svg11.dtd">
<svg version="1.1" id="Layer_1" xmlns="http://www.w3.org/2000/svg" xmlns:xlink="http://www.w3.org/1999/xlink" x="0px" y="0px"
	 width="950px" height="400px" viewBox="0 -1.5 950 400" enable-background="new 0 -1.5 950 400" xml:space="preserve">
<g id="bgGradient">
	
		<linearGradient id="SVGID_1_" gradientUnits="userSpaceOnUse" x1="-43.1865" y1="-43.0977" x2="735.2932" y2="270.374" gradientTransform="matrix(1 0 0 -1 79 331.5)">
		<stop  offset="0" style="stop-color:#808080"/>
		<stop  offset="0.8164" style="stop-color:#DED8CC"/>
	</linearGradient>
	<rect y="-1.5" fill="url(#SVGID_1_)" width="950" height="398.5"/>
</g>
<g id="strings">
	<g>
		<g>
			<path fill="none" stroke="#CE8D2D" stroke-miterlimit="10" d="M288.915,243.759c40.825-61.227,47.654-201.395-24.276-160.029
				c-73.11,42.046-65.911,68.162-29.833,77.488c36.075,9.322,98.459-35.52,37.207-65.399
				c-61.253-29.878-222.977,36.064-168.005,70.093c54.975,34.027,130.83-45.149,78.76-57.999
				c-52.071-12.852-95.89,143.053-39.872,123.231c56.024-19.821,96.04-30.086,87.539-44.312
				c-8.502-14.229-26.868-15.138-33.152-9.94c-32.403,26.787-32.669,115.876,41.253,72.59
				c46.03-26.959,85.999-80.613,23.161-132.205c-62.834-51.592-224.661-12.367-188.643,64.378
				c36.018,76.74,101.47,102.436,173.948,90.399c72.481-12.032-25.586-129.485-166.968-113.544c0,0-33.73-26.015,2.574-68.714
				c16.071-18.902,152.794-44.33,218.155,67.197c36.247,61.848,23.233,117.89,107.672,117.275
				c63.801-4.611,227.319-53.329,232.15-89.434c4.921-36.768,45.121-37.089,188.812-37.831"/>
			<g>
				<circle fill="#CE8D2D" cx="288.974" cy="243.571" r="3.76"/>
			</g>
			<g>
				<polygon fill="#CE8D2D" points="826.113,151.12 825.427,150.392 829.017,147.012 825.382,143.678 826.06,142.941 
					830.484,147.002 				"/>
			</g>
		</g>
	</g>
	<g>
		<g>
			<path fill="none" stroke="#90278E" stroke-miterlimit="10" d="M282.855,60.01c41.015,61.162,53.714,199.375-18.218,158.008
				c-73.11-42.045-65.911-68.16-29.833-77.485c36.074-9.322,98.459,35.519,37.206,65.397
				c-61.251,29.877-222.977-36.068-168.003-70.094c54.974-34.027,130.828,45.148,78.759,57.998
				c-52.07,12.852-95.891-143.05-39.874-123.229c56.025,19.821,96.04,30.087,87.538,44.312
				c-8.502,14.227-26.868,15.135-33.152,9.938c-32.402-26.788-32.67-115.874,41.252-72.587c46.03,26.958,86,80.612,23.163,132.201
				c-62.833,51.592-224.66,12.364-188.643-64.378c36.018-76.738,101.468-102.433,173.946-90.397
				C319.479,41.729,94.337,124.14,80.03,143.234c0,0-33.729,26.014,2.575,68.713c16.07,18.9,152.793,44.33,218.153-67.194
				c36.246-61.847,23.233-88.708,107.675-88.093c118.271-8.397,192.684,108.961,232.152,147.791
				c13.988,13.762,35.49,36.973,179.083,37.833"/>
			<g>
				<circle fill="#90278E" cx="282.919" cy="60.196" r="3.76"/>
			</g>
			<g>
				<polygon fill="#90278E" points="816.297,246.312 815.627,245.568 819.29,242.27 815.73,238.855 816.424,238.134 
					820.758,242.291 				"/>
			</g>
		</g>
	</g>
	<g>
		<g>
			<path fill="none" stroke="#26A9E0" stroke-miterlimit="10" d="M224.725,54.882c65.48,33.525,142.264,145.882,59.296,144.575
				c-84.327-1.328-90.692-27.652-63.658-53.292c27.03-25.634,103.334-16.664,64.246,39.149
				c-39.087,55.81-212.505,76.533-180.922,20.14c31.585-56.397,136.314-23.933,97.003,12.539
				c-39.312,36.475-153.221-78.604-94.617-88.422c58.61-9.823,98.584-20.242,98.046-3.683
				c-0.538,16.561-16.162,26.256-24.178,24.757c-41.326-7.717-84.751-85.482,0.889-83.46c53.328,1.26,114.299,28.802,84.351,104.368
				c-29.943,75.562-190.497,119.696-196.202,35.139c-5.701-84.554,39.086-138.744,108.312-163.349
				c69.227-24.607,40.396,125.616-90.988,180.2c0,0-44.093,8.256,35.565,58.834c45.052,28.604,286.179-67.072,373.141-100.715
				c80.674-29.364,71.703,39.193,127.148,91.981c27.266,25.962,157.484,13.571,231.938,13.45"/>
			<g>
				<circle fill="#26A9E0" cx="224.872" cy="55.013" r="3.76"/>
			</g>
			<g>
				<polygon fill="#26A9E0" points="850.849,291.253 850.155,290.531 853.712,287.117 850.046,283.818 850.716,283.075 
					855.18,287.093 				"/>
			</g>
		</g>
	</g>
	<g>
		<g>
			<path fill="none" stroke="#EB008B" stroke-miterlimit="10" d="M224.723,285.415c65.481-33.726,142.266-152,59.298-150.692
				c-84.327,1.329-90.692,27.664-63.659,53.314c27.032,25.646,103.335,16.67,64.247-39.165
				c-39.087-55.833-212.505-76.566-180.922-20.148c31.585,56.42,136.314,23.942,97.002-12.545
				c-39.311-36.488-153.22,78.635-94.616,88.459c58.611,9.826,98.585,20.25,98.045,3.684c-0.537-16.566-16.161-26.266-24.176-24.768
				c-41.327,7.721-84.752,85.519,0.887,83.497c53.331-1.263,114.3-28.817,84.352-104.411
				C235.238,87.046,74.684,42.894,68.979,127.487c-5.702,84.589,39.086,138.801,108.312,163.416
				c69.229,24.618,40.397-125.668-90.986-180.274c0,0-44.094-8.26,35.564-58.858c45.052-28.616,101.859,103.781,218.586,115.348
				c271.002,26.079,189.183-25.281,251.548-57.002c38.8-18.083,59.229-24.601,91.625-29.958
				c14.728-2.435,28.296-3.681,170.461-3.922"/>
			<g>
				<circle fill="#EB008B" cx="224.867" cy="285.282" r="3.76"/>
			</g>
			<g>
				<polygon fill="#EB008B" points="850.8,80.342 850.114,79.613 853.711,76.241 850.085,72.899 850.764,72.164 855.18,76.234 				
					"/>
			</g>
		</g>
	</g>
</g>
</svg>
